# xmcd
#
# Track frame offsets:
#	150
#	16405
#	32645
#	48608
#	61641
#	75165
#	89561
#	103781
#	118953
#	130471
#	144967
#	167927
#	215098
#	225433
#
# Disc length: 3314 seconds
#
# Revision: 6
# Processed by: cddbd v1.5.2PL0 Copyright (c) Steve Scherf et al.
# Submitted via: EasyCDDAExtractor 10.2.0.1
#
DISCID=bd0cf00e
DTITLE=Eric Clapton - Eric Clapton (2006 Deluxe Edition) [CD1]
DYEAR=1970
DGENRE=Blues
TTITLE0=Slunky
TTITLE1=Bad Boy
TTITLE2=Lonesome And A Long Way From Home
TTITLE3=After Midnight
TTITLE4=Easy Now
TTITLE5=Blues Power
TTITLE6=Bottle Of Red Wine
TTITLE7=Lovin' You Lovin' Me
TTITLE8=I've Told You For The Last Time
TTITLE9=Don't Know Why
TTITLE10=Let It Rain
TTITLE11=Blues In 'a' - (Bonus Track)
TTITLE12=Teasin' - (Bonus Track)
TTITLE13=She Rides - (Previously Unreleased, Bonus Track)
EXTD=
EXTT0=
EXTT1=
EXTT2=
EXTT3=
EXTT4=
EXTT5=
EXTT6=
EXTT7=
EXTT8=
EXTT9=
EXTT10=
EXTT11=
EXTT12=
EXTT13=
PLAYORDER=
